<svg width="257" height="24" viewBox="0 0 257 24" fill="none" xmlns="http://www.w3.org/2000/svg">
<g style="mix-blend-mode:lighten">
<path d="M0.56275 0.695999H21.5548L11.0588 23.448L0.56275 0.695999ZM11.0588 20.632L19.7308 1.88H2.41875L11.0588 20.632ZM26.7463 0.727999H42.9703V6.36H32.5703V9.176H41.2103V14.52H32.5703V17.368H42.9703V23H26.7463V0.727999ZM67.6498 23H50.5298V0.727999H59.2018C61.0578 0.727999 62.5724 1.05867 63.7458 1.72C64.8978 2.36 65.7938 3.23467 66.4338 4.344C67.0738 5.45333 67.3938 6.68 67.3938 8.024C67.3938 9.688 66.8818 11.1813 65.8578 12.504C64.8338 13.8053 63.5431 14.6693 61.9858 15.096L67.6498 23ZM52.5458 1.912L61.2498 14.072C62.6791 13.7733 63.8631 13.0587 64.8018 11.928C65.7404 10.7973 66.2098 9.496 66.2098 8.024C66.2098 6.85067 65.9218 5.784 65.3458 4.824C64.7698 3.864 63.9591 3.128 62.9138 2.616C61.9751 2.14667 60.7484 1.912 59.2338 1.912H52.5458ZM51.7138 2.68V14.168H59.9378L51.7138 2.68ZM51.7138 21.816H65.4097L60.7378 15.32L59.7458 15.352H51.7138V21.816ZM74.9213 6.36V0.727999H89.3213V6.36H82.6973V17.368H89.3213V23H74.9213V17.368H81.5453V6.36H74.9213ZM96.3688 23L105.105 11.864L96.3688 0.727999H115.281L106.545 11.864L115.281 23H96.3688ZM105.809 10.904L112.881 1.912H98.7688L105.809 10.904ZM112.881 21.816L105.809 12.824L98.7688 21.816H112.881ZM153.344 23.576C150.25 23.576 147.861 22.8507 146.176 21.4C144.512 19.928 143.69 17.7307 143.712 14.808H148.928C148.906 16.024 149.269 16.952 150.016 17.592C150.762 18.232 151.808 18.552 153.152 18.552C154.261 18.552 155.136 18.3707 155.776 18.008C156.416 17.6453 156.736 17.0907 156.736 16.344C156.736 15.7253 156.405 15.2773 155.744 15C155.104 14.7227 154.464 14.5307 153.824 14.424C153.184 14.296 152.789 14.2213 152.64 14.2C150.997 13.88 149.578 13.496 148.384 13.048C147.189 12.5787 146.186 11.8747 145.376 10.936C144.565 9.99733 144.16 8.76 144.16 7.224C144.16 5.688 144.565 4.38667 145.376 3.32C146.186 2.232 147.264 1.42133 148.608 0.887999C149.973 0.354666 151.456 0.0879993 153.056 0.0879993C154.997 0.0879993 156.672 0.450666 158.08 1.176C159.509 1.90133 160.629 3 161.44 4.472C161.845 5.176 162.09 5.85867 162.176 6.52C162.261 7.16 162.304 7.78933 162.304 8.408H157.088C157.088 7.256 156.778 6.41333 156.16 5.88C155.541 5.32533 154.581 5.048 153.28 5.048C152.234 5.048 151.424 5.22933 150.848 5.592C150.272 5.95467 149.984 6.44533 149.984 7.064C149.984 7.74667 150.368 8.248 151.136 8.568C151.904 8.888 152.874 9.176 154.048 9.432C155.968 9.816 157.461 10.1893 158.528 10.552C159.616 10.8933 160.554 11.512 161.344 12.408C162.133 13.304 162.528 14.5627 162.528 16.184C162.528 17.72 162.101 19.0427 161.248 20.152C160.394 21.2613 159.264 22.1147 157.856 22.712C156.469 23.288 154.965 23.576 153.344 23.576ZM176.295 23V6.36H167.879V0.727999H185.863V6.36H177.447V23H176.295ZM191.279 9.4C191.279 7.736 191.695 6.18933 192.527 4.76C193.359 3.33067 194.479 2.2 195.887 1.368C197.316 0.535999 198.873 0.119999 200.559 0.119999C202.244 0.119999 203.791 0.535999 205.199 1.368C206.628 2.2 207.759 3.33067 208.591 4.76C209.423 6.18933 209.839 7.736 209.839 9.4V14.328C209.839 15.992 209.423 17.5387 208.591 18.968C207.759 20.3973 206.628 21.528 205.199 22.36C203.791 23.192 202.244 23.608 200.559 23.608C198.873 23.608 197.316 23.192 195.887 22.36C194.479 21.528 193.359 20.3973 192.527 18.968C191.695 17.5387 191.279 15.992 191.279 14.328V9.4ZM197.103 14.328C197.103 15.352 197.423 16.2267 198.063 16.952C198.703 17.6773 199.535 18.04 200.559 18.04C201.561 18.04 202.383 17.6773 203.023 16.952C203.663 16.2267 203.983 15.352 203.983 14.328V9.368C203.983 8.32267 203.663 7.448 203.023 6.744C202.383 6.04 201.561 5.688 200.559 5.688C199.535 5.688 198.703 6.04 198.063 6.744C197.423 7.448 197.103 8.32267 197.103 9.368V14.328ZM233.462 23H216.342V0.727999H225.014C226.87 0.727999 228.385 1.05867 229.558 1.72C230.71 2.36 231.606 3.23467 232.246 4.344C232.886 5.45333 233.206 6.68 233.206 8.024C233.206 9.688 232.694 11.1813 231.67 12.504C230.646 13.8053 229.356 14.6693 227.798 15.096L233.462 23ZM218.358 1.912L227.062 14.072C228.492 13.7733 229.676 13.0587 230.614 11.928C231.553 10.7973 232.022 9.496 232.022 8.024C232.022 6.85067 231.734 5.784 231.158 4.824C230.582 3.864 229.772 3.128 228.726 2.616C227.788 2.14667 226.561 1.912 225.046 1.912H218.358ZM217.526 2.68V14.168H225.75L217.526 2.68ZM217.526 21.816H231.222L226.55 15.32L225.558 15.352H217.526V21.816ZM239.934 0.727999H256.158V6.36H245.758V9.176H254.398V14.52H245.758V17.368H256.158V23H239.934V0.727999Z" fill="#FD0098"/>
</g>
</svg>
